<?xml version="1.0" encoding="utf-8"?>
<svg version="1.1" xmlns:xlink="http://www.w3.org/1999/xlink" width="12px" height="12px" viewBox="220 94.5  12 12" xmlns="http://www.w3.org/2000/svg">
  <path d="M 226 94.5  C 229.36 94.5  232 97.14  232 100.5  C 232 103.86  229.36 106.5  226 106.5  C 222.64 106.5  220 103.86  220 100.5  C 220 97.14  222.64 94.5  226 94.5  Z " fill-rule="nonzero" fill="#ffffff" stroke="none" />
  <path d="M 226 95  C 229.08 95  231.5 97.42  231.5 100.5  C 231.5 103.58  229.08 106  226 106  C 222.92 106  220.5 103.58  220.5 100.5  C 220.5 97.42  222.92 95  226 95  Z " stroke-width="1" stroke="#797979" fill="none" />
  <path d="M 226 103.5  C 224.32 103.5  223 102.18  223 100.5  C 223 98.82  224.32 97.5  226 97.5  C 227.68 97.5  229 98.82  229 100.5  C 229 102.18  227.68 103.5  226 103.5  " fill-rule="nonzero" fill="#797979" stroke="none" />
</svg>