<?xml version="1.0" encoding="utf-8"?>
<svg version="1.1" xmlns:xlink="http://www.w3.org/1999/xlink" width="12px" height="12px" viewBox="1107 48.5  12 12" xmlns="http://www.w3.org/2000/svg">
  <path d="M 1113 48.5  C 1116.36 48.5  1119 51.14  1119 54.5  C 1119 57.86  1116.36 60.5  1113 60.5  C 1109.64 60.5  1107 57.86  1107 54.5  C 1107 51.14  1109.64 48.5  1113 48.5  Z " fill-rule="nonzero" fill="#ffffff" stroke="none" />
  <path d="M 1113 49  C 1116.08 49  1118.5 51.42  1118.5 54.5  C 1118.5 57.58  1116.08 60  1113 60  C 1109.92 60  1107.5 57.58  1107.5 54.5  C 1107.5 51.42  1109.92 49  1113 49  Z " stroke-width="1" stroke="#797979" fill="none" />
  <path d="M 1113 57.5  C 1111.32 57.5  1110 56.18  1110 54.5  C 1110 52.82  1111.32 51.5  1113 51.5  C 1114.68 51.5  1116 52.82  1116 54.5  C 1116 56.18  1114.68 57.5  1113 57.5  " fill-rule="nonzero" fill="#797979" stroke="none" />
</svg>