<?xml version="1.0" encoding="utf-8"?>
<svg version="1.1" xmlns:xlink="http://www.w3.org/1999/xlink" width="12px" height="12px" viewBox="306 94.5  12 12" xmlns="http://www.w3.org/2000/svg">
  <path d="M 312 94.5  C 315.36 94.5  318 97.14  318 100.5  C 318 103.86  315.36 106.5  312 106.5  C 308.64 106.5  306 103.86  306 100.5  C 306 97.14  308.64 94.5  312 94.5  Z " fill-rule="nonzero" fill="#ffffff" stroke="none" />
  <path d="M 312 95  C 315.08 95  317.5 97.42  317.5 100.5  C 317.5 103.58  315.08 106  312 106  C 308.92 106  306.5 103.58  306.5 100.5  C 306.5 97.42  308.92 95  312 95  Z " stroke-width="1" stroke="#797979" fill="none" />
  <path d="M 312 103.5  C 310.32 103.5  309 102.18  309 100.5  C 309 98.82  310.32 97.5  312 97.5  C 313.68 97.5  315 98.82  315 100.5  C 315 102.18  313.68 103.5  312 103.5  " fill-rule="nonzero" fill="#797979" stroke="none" />
</svg>