<?xml version="1.0" encoding="utf-8"?>
<svg version="1.1" xmlns:xlink="http://www.w3.org/1999/xlink" width="12px" height="12px" viewBox="391 94.5  12 12" xmlns="http://www.w3.org/2000/svg">
  <path d="M 397 94.5  C 400.36 94.5  403 97.14  403 100.5  C 403 103.86  400.36 106.5  397 106.5  C 393.64 106.5  391 103.86  391 100.5  C 391 97.14  393.64 94.5  397 94.5  Z " fill-rule="nonzero" fill="#ffffff" stroke="none" />
  <path d="M 397 95  C 400.08 95  402.5 97.42  402.5 100.5  C 402.5 103.58  400.08 106  397 106  C 393.92 106  391.5 103.58  391.5 100.5  C 391.5 97.42  393.92 95  397 95  Z " stroke-width="1" stroke="#797979" fill="none" />
  <path d="M 397 103.5  C 395.32 103.5  394 102.18  394 100.5  C 394 98.82  395.32 97.5  397 97.5  C 398.68 97.5  400 98.82  400 100.5  C 400 102.18  398.68 103.5  397 103.5  " fill-rule="nonzero" fill="#797979" stroke="none" />
</svg>