<?xml version="1.0" encoding="utf-8"?>
<svg version="1.1" xmlns:xlink="http://www.w3.org/1999/xlink" width="12px" height="12px" viewBox="391 93.5  12 12" xmlns="http://www.w3.org/2000/svg">
  <path d="M 397 93.5  C 400.36 93.5  403 96.14  403 99.5  C 403 102.86  400.36 105.5  397 105.5  C 393.64 105.5  391 102.86  391 99.5  C 391 96.14  393.64 93.5  397 93.5  Z " fill-rule="nonzero" fill="#ffffff" stroke="none" />
  <path d="M 397 94  C 400.08 94  402.5 96.42  402.5 99.5  C 402.5 102.58  400.08 105  397 105  C 393.92 105  391.5 102.58  391.5 99.5  C 391.5 96.42  393.92 94  397 94  Z " stroke-width="1" stroke="#797979" fill="none" />
  <path d="M 397 102.5  C 395.32 102.5  394 101.18  394 99.5  C 394 97.82  395.32 96.5  397 96.5  C 398.68 96.5  400 97.82  400 99.5  C 400 101.18  398.68 102.5  397 102.5  " fill-rule="nonzero" fill="#797979" stroke="none" />
</svg>