<?xml version="1.0" encoding="utf-8"?>
<svg version="1.1" xmlns:xlink="http://www.w3.org/1999/xlink" width="12px" height="12px" viewBox="1346 100.5  12 12" xmlns="http://www.w3.org/2000/svg">
  <path d="M 1352 100.5  C 1355.36 100.5  1358 103.14  1358 106.5  C 1358 109.86  1355.36 112.5  1352 112.5  C 1348.64 112.5  1346 109.86  1346 106.5  C 1346 103.14  1348.64 100.5  1352 100.5  Z " fill-rule="nonzero" fill="#ffffff" stroke="none" />
  <path d="M 1352 101  C 1355.08 101  1357.5 103.42  1357.5 106.5  C 1357.5 109.58  1355.08 112  1352 112  C 1348.92 112  1346.5 109.58  1346.5 106.5  C 1346.5 103.42  1348.92 101  1352 101  Z " stroke-width="1" stroke="#797979" fill="none" />
  <path d="M 1352 109.5  C 1350.32 109.5  1349 108.18  1349 106.5  C 1349 104.82  1350.32 103.5  1352 103.5  C 1353.68 103.5  1355 104.82  1355 106.5  C 1355 108.18  1353.68 109.5  1352 109.5  " fill-rule="nonzero" fill="#797979" stroke="none" />
</svg>