<?xml version="1.0" encoding="utf-8"?>
<svg version="1.1" xmlns:xlink="http://www.w3.org/1999/xlink" width="12px" height="12px" viewBox="1432 100.5  12 12" xmlns="http://www.w3.org/2000/svg">
  <path d="M 1438 100.5  C 1441.36 100.5  1444 103.14  1444 106.5  C 1444 109.86  1441.36 112.5  1438 112.5  C 1434.64 112.5  1432 109.86  1432 106.5  C 1432 103.14  1434.64 100.5  1438 100.5  Z " fill-rule="nonzero" fill="#ffffff" stroke="none" />
  <path d="M 1438 101  C 1441.08 101  1443.5 103.42  1443.5 106.5  C 1443.5 109.58  1441.08 112  1438 112  C 1434.92 112  1432.5 109.58  1432.5 106.5  C 1432.5 103.42  1434.92 101  1438 101  Z " stroke-width="1" stroke="#797979" fill="none" />
  <path d="M 1438 109.5  C 1436.32 109.5  1435 108.18  1435 106.5  C 1435 104.82  1436.32 103.5  1438 103.5  C 1439.68 103.5  1441 104.82  1441 106.5  C 1441 108.18  1439.68 109.5  1438 109.5  " fill-rule="nonzero" fill="#797979" stroke="none" />
</svg>