<?xml version="1.0" encoding="utf-8"?>
<svg version="1.1" xmlns:xlink="http://www.w3.org/1999/xlink" width="12px" height="12px" viewBox="147 104.5  12 12" xmlns="http://www.w3.org/2000/svg">
  <path d="M 153 104.5  C 156.36 104.5  159 107.14  159 110.5  C 159 113.86  156.36 116.5  153 116.5  C 149.64 116.5  147 113.86  147 110.5  C 147 107.14  149.64 104.5  153 104.5  Z " fill-rule="nonzero" fill="#ffffff" stroke="none" />
  <path d="M 153 105  C 156.08 105  158.5 107.42  158.5 110.5  C 158.5 113.58  156.08 116  153 116  C 149.92 116  147.5 113.58  147.5 110.5  C 147.5 107.42  149.92 105  153 105  Z " stroke-width="1" stroke="#797979" fill="none" />
  <path d="M 153 113.5  C 151.32 113.5  150 112.18  150 110.5  C 150 108.82  151.32 107.5  153 107.5  C 154.68 107.5  156 108.82  156 110.5  C 156 112.18  154.68 113.5  153 113.5  " fill-rule="nonzero" fill="#797979" stroke="none" />
</svg>