<?xml version="1.0" encoding="utf-8"?>
<svg version="1.1" xmlns:xlink="http://www.w3.org/1999/xlink" width="12px" height="12px" viewBox="1032 48.5  12 12" xmlns="http://www.w3.org/2000/svg">
  <path d="M 1038 48.5  C 1041.36 48.5  1044 51.14  1044 54.5  C 1044 57.86  1041.36 60.5  1038 60.5  C 1034.64 60.5  1032 57.86  1032 54.5  C 1032 51.14  1034.64 48.5  1038 48.5  Z " fill-rule="nonzero" fill="#ffffff" stroke="none" />
  <path d="M 1038 49  C 1041.08 49  1043.5 51.42  1043.5 54.5  C 1043.5 57.58  1041.08 60  1038 60  C 1034.92 60  1032.5 57.58  1032.5 54.5  C 1032.5 51.42  1034.92 49  1038 49  Z " stroke-width="1" stroke="#797979" fill="none" />
  <path d="M 1038 57.5  C 1036.32 57.5  1035 56.18  1035 54.5  C 1035 52.82  1036.32 51.5  1038 51.5  C 1039.68 51.5  1041 52.82  1041 54.5  C 1041 56.18  1039.68 57.5  1038 57.5  " fill-rule="nonzero" fill="#797979" stroke="none" />
</svg>