<?xml version="1.0" encoding="utf-8"?>
<svg version="1.1" xmlns:xlink="http://www.w3.org/1999/xlink" width="12px" height="12px" viewBox="222 104.5  12 12" xmlns="http://www.w3.org/2000/svg">
  <path d="M 228 104.5  C 231.36 104.5  234 107.14  234 110.5  C 234 113.86  231.36 116.5  228 116.5  C 224.64 116.5  222 113.86  222 110.5  C 222 107.14  224.64 104.5  228 104.5  Z " fill-rule="nonzero" fill="#ffffff" stroke="none" />
  <path d="M 228 105  C 231.08 105  233.5 107.42  233.5 110.5  C 233.5 113.58  231.08 116  228 116  C 224.92 116  222.5 113.58  222.5 110.5  C 222.5 107.42  224.92 105  228 105  Z " stroke-width="1" stroke="#797979" fill="none" />
  <path d="M 228 113.5  C 226.32 113.5  225 112.18  225 110.5  C 225 108.82  226.32 107.5  228 107.5  C 229.68 107.5  231 108.82  231 110.5  C 231 112.18  229.68 113.5  228 113.5  " fill-rule="nonzero" fill="#797979" stroke="none" />
</svg>