<?xml version="1.0" encoding="utf-8"?>
<svg version="1.1" xmlns:xlink="http://www.w3.org/1999/xlink" width="12px" height="12px" viewBox="302 104.5  12 12" xmlns="http://www.w3.org/2000/svg">
  <path d="M 308 104.5  C 311.36 104.5  314 107.14  314 110.5  C 314 113.86  311.36 116.5  308 116.5  C 304.64 116.5  302 113.86  302 110.5  C 302 107.14  304.64 104.5  308 104.5  Z " fill-rule="nonzero" fill="#ffffff" stroke="none" />
  <path d="M 308 105  C 311.08 105  313.5 107.42  313.5 110.5  C 313.5 113.58  311.08 116  308 116  C 304.92 116  302.5 113.58  302.5 110.5  C 302.5 107.42  304.92 105  308 105  Z " stroke-width="1" stroke="#797979" fill="none" />
  <path d="M 308 113.5  C 306.32 113.5  305 112.18  305 110.5  C 305 108.82  306.32 107.5  308 107.5  C 309.68 107.5  311 108.82  311 110.5  C 311 112.18  309.68 113.5  308 113.5  " fill-rule="nonzero" fill="#797979" stroke="none" />
</svg>