<?xml version="1.0" encoding="utf-8"?>
<svg version="1.1" xmlns:xlink="http://www.w3.org/1999/xlink" width="12px" height="12px" viewBox="387 104.5  12 12" xmlns="http://www.w3.org/2000/svg">
  <path d="M 393 104.5  C 396.36 104.5  399 107.14  399 110.5  C 399 113.86  396.36 116.5  393 116.5  C 389.64 116.5  387 113.86  387 110.5  C 387 107.14  389.64 104.5  393 104.5  Z " fill-rule="nonzero" fill="#ffffff" stroke="none" />
  <path d="M 393 105  C 396.08 105  398.5 107.42  398.5 110.5  C 398.5 113.58  396.08 116  393 116  C 389.92 116  387.5 113.58  387.5 110.5  C 387.5 107.42  389.92 105  393 105  Z " stroke-width="1" stroke="#797979" fill="none" />
  <path d="M 393 113.5  C 391.32 113.5  390 112.18  390 110.5  C 390 108.82  391.32 107.5  393 107.5  C 394.68 107.5  396 108.82  396 110.5  C 396 112.18  394.68 113.5  393 113.5  " fill-rule="nonzero" fill="#797979" stroke="none" />
</svg>